<svg xmlns="http://www.w3.org/2000/svg" width="64" height="64" viewBox="0 0 64 64" fill="none">
  <defs>
    <linearGradient id="r2u-bg" x1="0" y1="0" x2="64" y2="64" gradientUnits="userSpaceOnUse">
      <stop offset="0" stop-color="#6366f1"/>
      <stop offset="1" stop-color="#7c3aed"/>
    </linearGradient>
    <linearGradient id="r2u-fg" x1="20" y1="14" x2="44" y2="50" gradientUnits="userSpaceOnUse">
      <stop offset="0" stop-color="#ffffff"/>
      <stop offset="1" stop-color="#e0e7ff"/>
    </linearGradient>
  </defs>
  <rect width="64" height="64" rx="15" fill="url(#r2u-bg)"/>
  <rect x="0.75" y="0.75" width="62.5" height="62.5" rx="14.25" fill="none" stroke="#ffffff" stroke-opacity="0.18" stroke-width="1.5"/>
  <path
    d="M23.5 25.2c0-4.7 3.9-8.2 9-8.2 5 0 8.8 3.3 8.8 7.9 0 3.3-1.7 5.7-5.7 9.2l-7.4 6.5h13.6V46H23.2v-4.3l11-9.7c2.7-2.4 3.6-3.8 3.6-5.8 0-2.3-1.8-3.9-4.4-3.9-2.8 0-4.6 1.8-4.7 4.6z"
    fill="url(#r2u-fg)"
  />
</svg>
